<svg id="Ebene_1" data-name="Ebene 1" xmlns="http://www.w3.org/2000/svg" viewBox="0 0 424.07 131.93"><defs><style>.cls-1{fill:#2bad72;}</style></defs><title>Diva_Logotype_grün_v3</title><path class="cls-1" d="M500.54,207.93,441.54,76H425.9L366.72,207.93h16L433.25,93.15l50.89,114.78Zm-167,0L387.49,76H371.66L326.05,190.4,280.63,76H264.42L318,207.93Zm-108,0h15.08V76H225.6V207.93ZM178.05,189q19.6-18.94,19.6-47t-19.51-47Q158.64,76,129.8,76H76.46V207.93h52.78q29.2,0,48.81-18.94Zm4.33-46.84q0,22-15.07,36.75T130,193.61H91.54V90.51h37.88q22.25,0,37.6,14.8t15.36,36.84Z" transform="translate(-76.46 -76)"/></svg>