<svg height="512pt" viewBox="0 -1 512.00029 512" width="512pt" xmlns="http://www.w3.org/2000/svg"><path d="m512 150.546875v299.484375c0 33.34375-27.03125 60.378906-60.378906 60.378906h-320.734375c-33.347657 0-60.378907-27.035156-60.378907-60.378906v-299.484375zm0 0" fill="#efedee"/><path d="m70.507812 450.03125c0 18.851562 8.644532 35.683594 22.179688 46.753906h295.019531c17.03125 0 33.195313-6.457031 45.515625-18.183594 37.769532-35.953124 62.535156-87.003906 78.777344-138.144531v-189.910156h-441.492188zm0 0" fill="#d2d2d2"/><path d="m291.253906 91.351562-220.746094 59.195313s-2.121093 158.789063-65.246093 261.769531c-14.371094 23.441406 2.375 53.566406 29.871093 53.566406h352.574219c9.011719 0 17.683594-3.453124 24.207031-9.664062 97.238282-92.566406 100.085938-305.671875 100.085938-305.671875zm0 0" fill="#efedee"/><path d="m512 92.535156v58.011719h-441.492188v-58.011719c0-33.347656 27.03125-60.378906 60.378907-60.378906h320.734375c33.347656 0 60.378906 27.03125 60.378906 60.378906zm0 0" fill="#fd6f71"/><g fill="#3a484a"><path d="m153.394531 0c-10.644531 0-19.273437 8.628906-19.273437 19.273438v25.761718c0 10.644532 8.628906 19.273438 19.273437 19.273438s19.273438-8.628906 19.273438-19.273438v-25.761718c0-10.644532-8.628907-19.273438-19.273438-19.273438zm0 0"/><path d="m246.378906 0c-10.644531 0-19.273437 8.628906-19.273437 19.273438v25.761718c0 10.644532 8.628906 19.273438 19.273437 19.273438 10.644532 0 19.273438-8.628906 19.273438-19.273438v-25.761718c0-10.644532-8.628906-19.273438-19.273438-19.273438zm0 0"/><path d="m339.363281 0c-10.644531 0-19.273437 8.628906-19.273437 19.273438v25.761718c0 10.644532 8.628906 19.273438 19.273437 19.273438s19.273438-8.628906 19.273438-19.273438v-25.761718c0-10.644532-8.628907-19.273438-19.273438-19.273438zm0 0"/><path d="m432.347656 0c-10.644531 0-19.273437 8.628906-19.273437 19.273438v25.761718c0 10.644532 8.628906 19.273438 19.273437 19.273438 10.644532 0 19.273438-8.628906 19.273438-19.273438v-25.761718c0-10.644532-8.628906-19.273438-19.273438-19.273438zm0 0"/></g><path d="m248.375 425.007812c259.820312-136.179687 97.65625-292.070312 0-196.632812-97.65625-95.4375-259.816406 60.453125 0 196.632812zm0 0" fill="#fd6f71"/><path d="m181.210938 311.257812c-4.265626 0-7.726563-3.460937-7.726563-7.726562v-12.15625c0-4.265625 3.460937-7.726562 7.726563-7.726562 4.269531 0 7.726562 3.460937 7.726562 7.726562v12.15625c0 4.265625-3.457031 7.726562-7.726562 7.726562zm0 0" fill="#3a484a"/><path d="m315.539062 311.257812c-4.265624 0-7.726562-3.460937-7.726562-7.726562v-12.15625c0-4.265625 3.460938-7.726562 7.726562-7.726562 4.269532 0 7.726563 3.460937 7.726563 7.726562v12.15625c0 4.265625-3.457031 7.726562-7.726563 7.726562zm0 0" fill="#3a484a"/><path d="m248.375 317.742188c-8.691406 0-16.851562-3.632813-22.394531-9.972657-2.808594-3.214843-2.480469-8.097656.734375-10.902343 3.210937-2.808594 8.09375-2.484376 10.902344.730468 2.605468 2.984375 6.527343 4.691406 10.757812 4.691406s8.152344-1.707031 10.761719-4.691406c2.808593-3.214844 7.6875-3.539062 10.902343-.730468 3.210938 2.804687 3.539063 7.6875.730469 10.902343-5.539062 6.339844-13.703125 9.972657-22.394531 9.972657zm0 0" fill="#3a484a"/></svg>