<svg height="512pt" viewBox="-66 0 512 512" width="512pt" xmlns="http://www.w3.org/2000/svg"><path d="m379.199219 322.398438c0 104.714843-84.886719 189.601562-189.597657 189.601562-104.714843 0-189.601562-84.886719-189.601562-189.601562 0-104.710938 84.886719-189.597657 189.601562-189.597657 104.710938 0 189.597657 84.886719 189.597657 189.597657zm0 0" fill="#7397da"/><path d="m251.742188 432.484375c-95.117188 0-172.222657-77.109375-172.222657-172.226563 0-14.1875 1.71875-27.976562 4.957031-41.164062 3.488282 6.933594 7.289063 13.945312 11.417969 21.042969 21.089844 36.238281 46.109375 66.96875 63.382813 86.367187 7.703125 8.644532 18.753906 13.601563 30.324218 13.601563 11.570313 0 22.621094-4.957031 30.320313-13.601563 17.277344-19.398437 42.296875-50.128906 63.386719-86.367187 12.570312-21.601563 22.164062-42.464844 28.761718-62.460938-33.039062-27.988281-75.78125-44.875-122.46875-44.875-104.714843 0-189.601562 84.886719-189.601562 189.597657 0 104.714843 84.886719 189.601562 189.601562 189.601562 81.800782 0 151.503907-51.804688 178.089844-124.394531-30.601562 27.878906-71.289062 44.878906-115.949218 44.878906zm0 0" fill="#6988c4"/><path d="m379.039062 329.898438c.097657-2.488282.160157-4.984376.160157-7.5 0-2.511719-.0625-5.007813-.160157-7.5h-87.0625c-.742187-28.667969-5.8125-55.007813-15.582031-79.800782h81.542969c-2.667969-5.140625-5.5625-10.148437-8.675781-15h-79.460938c-14.84375-30.667968-37.367187-59.113281-68.402343-86.921875-3.902344-.238281-7.832032-.375-11.796876-.375-3.964843 0-7.894531.136719-11.796874.375-31.035157 27.808594-53.558594 56.253907-68.40625 86.921875h-79.457032c-3.113281 4.851563-6.007812 9.859375-8.675781 15h81.542969c-9.769532 24.792969-14.839844 51.132813-15.582032 79.800782h-87.066406c-.0937498 2.492187-.160156 4.988281-.160156 7.5 0 2.515624.0664062 5.011718.160156 7.5h87.0625c.746094 28.671874 5.8125 55.011718 15.585938 79.800781h-81.546875c2.671875 5.144531 5.566406 10.148437 8.679687 15h79.457032c14.847656 30.671875 37.371093 59.117187 68.40625 86.925781 3.902343.238281 7.832031.375 11.796874.375 3.960938 0 7.894532-.136719 11.796876-.375 31.035156-27.808594 53.558593-56.253906 68.402343-86.925781h79.460938c3.113281-4.851563 6.007812-9.855469 8.675781-15h-81.542969c9.769531-24.789063 14.839844-51.128907 15.582031-79.800781zm-196.9375 165.335937c-24.761718-23.058594-43.1875-46.277344-56.011718-70.535156h56.011718zm0-85.535156h-63.179687c-10.402344-24.332031-15.894531-50.605469-16.691406-79.800781h79.871093zm0-94.800781h-79.867187c.792969-29.195313 6.285156-55.46875 16.6875-79.800782h63.179687zm0-94.796876h-56.011718c12.824218-24.257812 31.25-47.476562 56.011718-70.535156zm15-70.535156c24.761719 23.058594 43.1875 46.277344 56.011719 70.535156h-56.011719zm0 345.667969v-70.535156h56.011719c-12.824219 24.261719-31.25 47.476562-56.011719 70.535156zm63.179688-85.535156h-63.179688v-79.800781h79.867188c-.796875 29.195312-6.285156 55.46875-16.6875 79.800781zm-63.179688-94.800781v-79.796876h63.179688c10.402344 24.332032 15.894531 50.605469 16.6875 79.800782h-79.867188zm0 0" fill="#80bbe6"/><path d="m74.011719 115.589844c0 78.996094 66.304687 163.023437 98.480469 199.144531 9.117187 10.238281 25.101562 10.238281 34.21875 0 32.175781-36.121094 98.480468-120.148437 98.480468-199.144531 0-63.839844-51.753906-115.589844-115.589844-115.589844-63.839843 0-115.589843 51.75-115.589843 115.589844zm0 0" fill="#f8e47c"/><path d="m129.828125 16.636719c-33.453125 20.25-55.816406 56.988281-55.816406 98.953125 0 78.996094 66.304687 163.023437 98.480469 199.144531 9.117187 10.238281 25.101562 10.238281 34.21875 0 9.875-11.085937 22.960937-26.6875 36.363281-45.265625-102.375 27.003906-173.546875-188.507812-113.246094-252.832031zm0 0" fill="#edd35f"/><path d="m227.121094 115.589844c0 20.722656-16.796875 37.519531-37.519532 37.519531-20.722656 0-37.523437-16.796875-37.523437-37.519531s16.800781-37.523438 37.523437-37.523438c20.722657 0 37.519532 16.800782 37.519532 37.523438zm0 0" fill="#fff"/></svg>