<?xml version="1.0" encoding="utf-8"?>
<!-- Generator: Adobe Illustrator 24.1.3, SVG Export Plug-In . SVG Version: 6.00 Build 0)  -->
<svg version="1.1" id="Capa_1" xmlns="http://www.w3.org/2000/svg" xmlns:xlink="http://www.w3.org/1999/xlink" x="0px" y="0px"
	 viewBox="0 0 45.2 58" style="enable-background:new 0 0 45.2 58;" xml:space="preserve">
<style type="text/css">
	.st0{fill:#ecf3f8;}
	.st1{fill:lightgray;}
</style>
<g>
	<g>
		<polygon class="st0" points="45.2,14 31.2,0 0.2,0 0.2,58 45.2,58 		"/>
		<g>
			<path class="st1" d="M10.2,23h25c0.6,0,1-0.4,1-1s-0.4-1-1-1h-25c-0.6,0-1,0.4-1,1S9.7,23,10.2,23z"/>
			<path class="st1" d="M10.2,15h10c0.6,0,1-0.4,1-1s-0.4-1-1-1h-10c-0.6,0-1,0.4-1,1S9.7,15,10.2,15z"/>
			<path class="st1" d="M35.2,29h-25c-0.6,0-1,0.4-1,1s0.4,1,1,1h25c0.6,0,1-0.4,1-1S35.8,29,35.2,29z"/>
			<path class="st1" d="M35.2,37h-25c-0.6,0-1,0.4-1,1s0.4,1,1,1h25c0.6,0,1-0.4,1-1S35.8,37,35.2,37z"/>
			<path class="st1" d="M35.2,45h-25c-0.6,0-1,0.4-1,1s0.4,1,1,1h25c0.6,0,1-0.4,1-1S35.8,45,35.2,45z"/>
		</g>
		<polygon class="st1" points="31.2,0 31.2,14 45.2,14 		"/>
	</g>
</g>
</svg>
