<?xml version="1.0" encoding="utf-8"?>
<!-- Generator: Adobe Illustrator 23.1.0, SVG Export Plug-In . SVG Version: 6.00 Build 0)  -->
<svg version="1.1" id="Layer_1" xmlns="http://www.w3.org/2000/svg" xmlns:xlink="http://www.w3.org/1999/xlink" x="0px" y="0px"
	 viewBox="0 0 843.3 591" style="enable-background:new 0 0 843.3 591;" xml:space="preserve">
<style type="text/css">
	.st0{opacity:0.1;fill:#2D68FC;}
	.st1{fill:none;stroke:#6C63FF;stroke-width:5;stroke-linecap:round;stroke-miterlimit:10;}
	.st2{opacity:0.7;fill:#2D68FC;}
	.st3{fill:#6C63FF;}
	.st4{fill:#FFFFFF;}
	.st5{fill:#CCCCCC;}
	.st6{fill:#FF6584;}
	.st7{opacity:0.3;fill:#2D68FC;}
</style>
<circle class="st0" cx="421.7" cy="295.5" r="136.3"/>
<path class="st1" d="M216.6,109.6v82.9c0,13.2,10.7,23.9,23.9,23.9h74.6"/>
<path class="st1" d="M315.1,382.6H191.5c-13.2,0-23.9,10.7-23.9,23.9v74.6"/>
<path class="st1" d="M494.7,408.1h82.9c13.2,0,23.9-10.7,23.9-23.9v-74.6"/>
<circle class="st2" cx="315.1" cy="216.5" r="16.1"/>
<circle class="st2" cx="315.1" cy="381.4" r="16.1"/>
<circle class="st2" cx="494.7" cy="408.1" r="16.1"/>
<g>
	<path class="st3" d="M239.1,97l-42.6,1.8c-1.8,0.1-3.6-0.7-4.8-2.1c-1.2-1.4-1.7-3.2-1.4-5c3.3-17.8,2.3-36.2-2.8-53.5
		c-0.8-2.7,0.4-5.7,3-7c17.4-9.1,33.8-9.5,48.6-1.4c1.6,0.9,2.7,2.4,3,4.1c3.8,19,4.8,38.4,2.7,57.7C244.6,94.6,242.1,96.9,239.1,97
		z"/>
	<path class="st4" d="M237.3,69.1l-32.6,1.3c-1.7,0.1-3.1-1.2-3.2-2.9c-0.1-1.7,1.2-3.1,2.9-3.2c0,0,0,0,0,0l32.6-1.3
		c1.7-0.1,3.1,1.2,3.2,2.9C240.3,67.6,239,69.1,237.3,69.1L237.3,69.1z"/>
	<path class="st4" d="M236.9,58.4l-32.6,1.3c-1.7,0.1-3.1-1.2-3.2-2.9c-0.1-1.7,1.2-3.1,2.9-3.2l32.6-1.3c1.7-0.1,3.1,1.2,3.2,2.9
		C239.9,56.9,238.6,58.3,236.9,58.4z"/>
</g>
<g>
	<path class="st5" d="M188.3,567.8h-42.6c-1.8,0-3.6-0.8-4.7-2.3c-1.1-1.4-1.6-3.3-1.2-5c4.1-17.9,3.8-36.5-0.7-54.3
		c-0.6-2.4,0.3-4.9,2.3-6.4c21.9-15.8,39.2-15.3,51.3,1.4c0.5,0.8,0.9,1.6,1.1,2.6c3.2,19.5,3.4,39.3,0.5,58.9
		C193.9,565.6,191.3,567.8,188.3,567.8z"/>
	<path class="st4" d="M175.1,525.1h-14.7c-1.7,0-3.1-1.4-3-3.1c0-1.7,1.4-3,3-3h14.7c1.7,0,3.1,1.4,3,3.1
		C178.1,523.8,176.8,525.1,175.1,525.1z"/>
	<path class="st4" d="M175.1,535.8h-14.7c-1.7,0-3.1-1.4-3-3.1c0-1.7,1.4-3,3-3h14.7c1.7,0,3.1,1.4,3,3.1
		C178.1,534.5,176.8,535.8,175.1,535.8z"/>
	<path class="st4" d="M175.1,546.6h-14.7c-1.7,0-3.1-1.4-3-3.1c0-1.7,1.4-3,3-3h14.7c1.7,0,3.1,1.4,3,3.1
		C178.1,545.2,176.8,546.6,175.1,546.6z"/>
</g>
<g>
	<path class="st6" d="M622.2,299.8h-42.6c-1.8,0-3.6-0.8-4.7-2.3c-1.1-1.4-1.6-3.3-1.2-5c4-17.8,3.8-36.3-0.6-53.9
		c-0.6-2.6,0.5-5.3,2.8-6.7c20.7-11.9,37.1-11.5,50.1,1c0.9,0.9,1.5,2.1,1.7,3.3c3.2,19.3,3.3,39,0.5,58.4
		C627.7,297.6,625.2,299.8,622.2,299.8z"/>
	<path class="st4" d="M604.9,259.8h-14.7c-1.7,0-3.1-1.4-3-3.1c0-1.7,1.4-3,3-3h14.7c1.7,0,3.1,1.4,3,3.1
		C608,258.5,606.6,259.8,604.9,259.8z"/>
	<path class="st4" d="M622.9,271.9h-32.6c-1.7,0-3.1-1.4-3.1-3.1c0-1.7,1.4-3.1,3.1-3.1h32.6c1.7,0,3.1,1.4,3,3.1
		C625.9,270.6,624.5,271.9,622.9,271.9z"/>
</g>
<circle class="st7" cx="421.7" cy="295.5" r="100.8"/>
<circle class="st2" cx="421.7" cy="295.5" r="62.9"/>
</svg>
