<?xml version="1.0" encoding="utf-8"?>
<!-- Generator: Adobe Illustrator 23.1.0, SVG Export Plug-In . SVG Version: 6.00 Build 0)  -->
<svg version="1.1" id="Layer_1" xmlns="http://www.w3.org/2000/svg" xmlns:xlink="http://www.w3.org/1999/xlink" x="0px" y="0px"
	 viewBox="0 0 932.4 577.4" style="enable-background:new 0 0 932.4 577.4;" xml:space="preserve">
<style type="text/css">
	.st0{fill:#FFFFFF;}
	.st1{fill:#CCCCCC;}
	.st2{fill:#6C63FF;}
	.st3{fill:#FF6584;}
	.st4{fill:#2D68FC;}
</style>
<g>
	<path class="st0" d="M711.9,308.6c-12.2,6.7-25.1,12-38.5,15.9c-52.1,15.2-109.4,12.2-160.9-3.7c-26.5-8.2-51.7-20-75-35.1
		c-23.7-15.4-44.5-34.4-64-54.7c-18.9-19.8-36.7-40.6-55.3-60.6c0.5-0.6,1.1-1.3,1.6-1.9c20.4,21.8,39.8,44.6,60.6,65.9
		c19.7,20.1,41,38.5,65,53.2c24,14.7,49.9,25.9,77,33.4c52,14.4,110,15.6,161.3-2.5c9.6-3.4,18.9-7.6,27.8-12.6
		C711.7,306.7,711.8,307.7,711.9,308.6z"/>
	<path class="st0" d="M709.8,388.4c-18.9,15.5-41.4,26.8-64.9,33.7c-52.1,15.2-109.4,12.2-160.9-3.7c-26.5-8.2-51.7-20-75-35.1
		c-23.7-15.4-44.5-34.4-64-54.7c-19.8-20.7-38.3-42.6-58-63.5c-19.6-20.8-40.6-40.2-64-56.7c2,0.4,4,0.7,6,1c1.5,1.1,3,2.2,4.5,3.3
		c45.2,33.8,79.1,79.1,118.4,119.1c19.7,20.1,41,38.5,65,53.2c24,14.7,49.9,25.9,77,33.4c52,14.4,110,15.6,161.3-2.5
		c20.3-7.1,39.1-17.9,55.4-31.8C710.4,385.7,710.1,387.1,709.8,388.4z"/>
	<path class="st0" d="M139,367.3c44.5,33.3,78.1,77.8,116.6,117.4c-0.7,0.5-1.5,1-2.2,1.5c-1-1-1.9-2-2.9-3
		c-19.8-20.7-38.3-42.6-58-63.5c-20-21.3-41.5-41.1-65.5-57.8c-33.2-23.1-70.1-40.4-109-51.4c0.2-0.8,0.5-1.7,0.7-2.5
		C62.1,320.2,102.9,340.3,139,367.3z"/>
	<path class="st1" d="M723.9,189.3L723.9,189.3c-6-1.8-9.4-8.1-7.6-14.1c1.8-6,8.1-9.4,14.1-7.6c6,1.8,9.4,8.1,7.6,14.1
		C736.2,187.7,729.9,191.1,723.9,189.3z M724.4,187.6L724.4,187.6c5.1,1.5,10.4-1.4,12-6.5c1.5-5.1-1.4-10.4-6.5-12
		c-5.1-1.5-10.4,1.4-12,6.5C716.4,180.8,719.3,186.1,724.4,187.6L724.4,187.6L724.4,187.6z"/>
	<ellipse transform="matrix(0.3615 -0.9324 0.9324 0.3615 335.5649 829.4952)" class="st1" cx="773.4" cy="169.7" rx="7" ry="7"/>
	
		<ellipse transform="matrix(0.3615 -0.9324 0.9324 0.3615 368.5959 861.6191)" class="st1" cx="813.4" cy="161.7" rx="3.7" ry="3.7"/>
	<path class="st1" d="M593.3,378.4c-5.1,3.6-12.2,2.4-15.8-2.7c-3.6-5.1-2.4-12.2,2.7-15.8c5.1-3.6,12.2-2.4,15.8,2.7l0,0
		C599.6,367.7,598.4,374.8,593.3,378.4z M581.2,361.3c-4.3,3.1-5.3,9.1-2.3,13.4c3.1,4.3,9.1,5.3,13.4,2.3c4.3-3.1,5.3-9.1,2.3-13.4
		l0,0C591.5,359.3,585.5,358.3,581.2,361.3L581.2,361.3z"/>
	<ellipse transform="matrix(0.3615 -0.9324 0.9324 0.3615 -8.7608 818.7842)" class="st1" cx="593.4" cy="415.8" rx="7" ry="7"/>
	
		<ellipse transform="matrix(0.3615 -0.9324 0.9324 0.3615 -43.1213 849.4816)" class="st1" cx="598.7" cy="456.2" rx="3.7" ry="3.7"/>
	<path class="st1" d="M399.3,98.6c-0.6-6.2,4-11.8,10.3-12.3c6.2-0.6,11.8,4,12.3,10.3c0.6,6.2-4,11.8-10.3,12.3l0,0l0,0
		C405.4,109.5,399.9,104.9,399.3,98.6z M420.2,96.7c-0.5-5.3-5.2-9.2-10.4-8.7c-5.3,0.5-9.2,5.2-8.7,10.4c0.5,5.3,5.2,9.2,10.4,8.7
		l0,0l0,0C416.8,106.7,420.7,102,420.2,96.7z"/>
	<circle class="st1" cx="367" cy="80" r="7"/>
	<circle class="st1" cx="329.4" cy="64.2" r="3.7"/>
</g>
<g>
	<path class="st2" d="M227.3,69.7L195.6,71c-1.4,0.1-2.7-0.5-3.6-1.6c-0.9-1-1.3-2.4-1-3.7c2.4-13.3,1.7-27-2.1-40
		c-0.6-2,0.3-4.2,2.2-5.2c13-6.8,25.2-7.1,36.2-1c1.2,0.6,2,1.8,2.3,3.1c2.9,14.2,3.6,28.7,2,43C231.4,67.8,229.6,69.6,227.3,69.7z"
		/>
	<path class="st0" d="M226,48.9l-24.3,1c-1.3,0.1-2.3-0.9-2.4-2.2c-0.1-1.3,0.9-2.3,2.2-2.4c0,0,0,0,0,0l24.3-1
		c1.3-0.1,2.3,0.9,2.4,2.2C228.2,47.7,227.2,48.8,226,48.9L226,48.9z"/>
	<path class="st0" d="M225.7,40.9l-24.3,1c-1.3,0.1-2.3-0.9-2.4-2.2c-0.1-1.3,0.9-2.3,2.2-2.4l24.3-1c1.3-0.1,2.3,0.9,2.4,2.2
		C227.9,39.7,226.9,40.8,225.7,40.9z"/>
</g>
<g>
	<path class="st2" d="M171.9,418l31.8-1.3c1.4-0.1,2.7,0.5,3.6,1.6c0.9,1,1.3,2.4,1,3.7c-2.4,13.3-1.7,27,2.1,40
		c0.6,2-0.3,4.2-2.2,5.2c-13,6.8-25.2,7.1-36.2,1c-1.2-0.6-2-1.8-2.3-3.1c-2.9-14.2-3.6-28.7-2-43
		C167.8,419.8,169.6,418.1,171.9,418z"/>
	<path class="st0" d="M173.2,438.8l24.3-1c1.3-0.1,2.3,0.9,2.4,2.2s-0.9,2.3-2.2,2.4c0,0,0,0,0,0l-24.3,1c-1.3,0.1-2.3-0.9-2.4-2.2
		S172,438.9,173.2,438.8L173.2,438.8z"/>
	<path class="st0" d="M173.6,446.8l24.3-1c1.3-0.1,2.3,0.9,2.4,2.2s-0.9,2.3-2.2,2.4l-24.3,1c-1.3,0.1-2.3-0.9-2.4-2.2
		C171.3,447.9,172.3,446.8,173.6,446.8z"/>
</g>
<g>
	<path class="st1" d="M699,558.1h-31.8c-1.4,0-2.7-0.6-3.5-1.7c-0.8-1.1-1.2-2.4-0.9-3.7c3-13.4,2.8-27.3-0.6-40.5
		c-0.4-1.8,0.3-3.7,1.7-4.7c16.4-11.8,29.2-11.4,38.3,1c0.4,0.6,0.7,1.2,0.8,1.9c2.4,14.5,2.6,29.4,0.4,43.9
		C703.1,556.5,701.2,558.1,699,558.1z"/>
	<path class="st0" d="M689.1,526.3h-10.9c-1.3,0-2.3-1-2.3-2.3c0-1.3,1-2.3,2.3-2.3h10.9c1.3,0,2.3,1,2.3,2.3
		C691.4,525.2,690.4,526.3,689.1,526.3z"/>
	<path class="st0" d="M689.1,534.3h-10.9c-1.3,0-2.3-1-2.3-2.3c0-1.3,1-2.3,2.3-2.3h10.9c1.3,0,2.3,1,2.3,2.3
		C691.4,533.2,690.4,534.3,689.1,534.3z"/>
	<path class="st0" d="M689.1,542.3h-10.9c-1.3,0-2.3-1-2.3-2.3c0-1.3,1-2.3,2.3-2.3h10.9c1.3,0,2.3,1,2.3,2.3
		C691.4,541.2,690.4,542.3,689.1,542.3z"/>
</g>
<g>
	<path class="st3" d="M891.1,174.3h-31.8c-1.4,0-2.7-0.6-3.5-1.7c-0.8-1.1-1.2-2.4-0.9-3.7c3-13.3,2.8-27.1-0.5-40.2
		c-0.5-1.9,0.4-4,2.1-5c15.4-8.8,27.7-8.6,37.4,0.7c0.7,0.7,1.1,1.5,1.3,2.5c2.4,14.4,2.5,29.1,0.3,43.6
		C895.2,172.6,893.3,174.3,891.1,174.3z"/>
	<path class="st0" d="M878.2,144.4h-10.9c-1.3,0-2.3-1-2.3-2.3c0-1.3,1-2.3,2.3-2.3h10.9c1.3,0,2.3,1,2.3,2.3
		C880.5,143.4,879.4,144.4,878.2,144.4z"/>
	<path class="st0" d="M891.6,153.4h-24.3c-1.3,0-2.3-1-2.3-2.3c0-1.3,1-2.3,2.3-2.3h24.3c1.3,0,2.3,1,2.3,2.3
		C893.8,152.4,892.8,153.4,891.6,153.4z"/>
</g>
<g id="b3812a0d-69b2-4ac3-87c4-e066c2de2dfd">
	<circle id="fb0bff05-a63a-421c-8737-de050f830f30" class="st4" cx="466.2" cy="289.7" r="154.9"/>
	<path id="f9b355f0-5797-4243-8ae5-6fe77774d21b-851" class="st0" d="M530.5,276.7h-52.7V224c0-6.8-5.5-12.4-12.4-12.4h0l0,0
		c-6.8,0-12.4,5.5-12.4,12.4v0v52.7h-52.7c-6.8,0-12.4,5.5-12.4,12.4v0l0,0l0,0c0,6.8,5.5,12.4,12.4,12.4h0h52.7v52.7
		c0,6.8,5.5,12.4,12.4,12.4h0l0,0c6.8,0,12.4-5.5,12.4-12.4v0v-52.7h52.7c6.8,0,12.4-5.5,12.4-12.4v0l0,0l0,0
		C542.9,282.2,537.4,276.7,530.5,276.7L530.5,276.7L530.5,276.7L530.5,276.7z"/>
</g>
</svg>
