<svg id="Ebene_1" data-name="Ebene 1" xmlns="http://www.w3.org/2000/svg" xmlns:xlink="http://www.w3.org/1999/xlink" viewBox="0 0 973 925.54"><defs><style>.cls-1,.cls-2{opacity:0.3;}.cls-1{fill:url(#Unbenannter_Verlauf_62);}.cls-2{fill:url(#Unbenannter_Verlauf_62-2);}.cls-3{opacity:0.4;fill:url(#Unbenannter_Verlauf_23);}.cls-4{fill:url(#Unbenannter_Verlauf_61);}.cls-5{fill:url(#Unbenannter_Verlauf_34);}.cls-6{fill:#ccc;}.cls-7{fill:red;}.cls-7,.cls-8{opacity:0.5;}.cls-8{fill:lime;}.cls-9{fill:url(#Unbenannter_Verlauf_23-2);}.cls-10{fill:url(#Unbenannter_Verlauf_23-3);}.cls-11{fill:url(#Unbenannter_Verlauf_23-4);}.cls-12{fill:url(#Unbenannter_Verlauf_23-5);}.cls-13{fill:url(#Unbenannter_Verlauf_51);}.cls-14{fill:url(#Unbenannter_Verlauf_23-6);}.cls-15{fill:url(#Unbenannter_Verlauf_51-2);}.cls-16{fill:url(#Unbenannter_Verlauf_23-7);}.cls-17{fill:url(#Unbenannter_Verlauf_30);}.cls-18{fill:url(#Unbenannter_Verlauf_30-2);}.cls-19{fill:#003365;}.cls-20{fill:#000b34;}.cls-21{fill:url(#Unbenannter_Verlauf_51-3);}.cls-22{fill:url(#Unbenannter_Verlauf_23-8);}.cls-23{fill:url(#Unbenannter_Verlauf_42);}.cls-24{fill:url(#Unbenannter_Verlauf_42-2);}.cls-25{fill:url(#Unbenannter_Verlauf_34-2);}.cls-26{fill:url(#Unbenannter_Verlauf_17);}.cls-27{fill:url(#Unbenannter_Verlauf_17-2);}.cls-28{fill:url(#Unbenannter_Verlauf_77);}.cls-29{fill:url(#Unbenannter_Verlauf_17-3);}.cls-30{fill:url(#Unbenannter_Verlauf_30-3);}.cls-31{fill:url(#Unbenannter_Verlauf_42-3);}.cls-32{fill:url(#Unbenannter_Verlauf_42-4);}.cls-33{fill:url(#Unbenannter_Verlauf_34-3);}.cls-34{fill:url(#Unbenannter_Verlauf_17-4);}.cls-35{fill:url(#Unbenannter_Verlauf_17-5);}.cls-36{fill:url(#Unbenannter_Verlauf_17-6);}</style><linearGradient id="Unbenannter_Verlauf_62" x1="795.53" y1="851.57" x2="401.13" y2="400.82" gradientTransform="matrix(0.94, -0.35, -0.38, -1.03, 220.69, 1181.22)" gradientUnits="userSpaceOnUse"><stop offset="0" stop-color="#c7d3ff"/><stop offset="0.59" stop-color="#e7d8f5"/><stop offset="1" stop-color="#ffdbed"/></linearGradient><linearGradient id="Unbenannter_Verlauf_62-2" x1="775.39" y1="802.57" x2="380.99" y2="351.82" xlink:href="#Unbenannter_Verlauf_62"/><linearGradient id="Unbenannter_Verlauf_23" x1="818.63" y1="860.66" x2="394.8" y2="376.28" gradientTransform="matrix(0.96, -0.28, -0.31, -1.06, 171.78, 1160.51)" gradientUnits="userSpaceOnUse"><stop offset="0" stop-color="#89f7fe"/><stop offset="1" stop-color="#66a6ff"/></linearGradient><linearGradient id="Unbenannter_Verlauf_61" x1="61.2" y1="561.2" x2="262.64" y2="561.2" gradientUnits="userSpaceOnUse"><stop offset="0" stop-color="#cfd9df"/><stop offset="1" stop-color="#e2ebf0"/></linearGradient><linearGradient id="Unbenannter_Verlauf_34" x1="95.5" y1="460.12" x2="200.33" y2="460.12" gradientUnits="userSpaceOnUse"><stop offset="0" stop-color="#1e3c72"/><stop offset="1" stop-color="#667eea"/></linearGradient><linearGradient id="Unbenannter_Verlauf_23-2" x1="109.23" y1="438.76" x2="171.35" y2="438.76" gradientTransform="matrix(1, 0, 0, 1, 0, 0)" xlink:href="#Unbenannter_Verlauf_23"/><linearGradient id="Unbenannter_Verlauf_23-3" x1="109.23" y1="451.71" x2="179.12" y2="451.71" gradientTransform="matrix(1, 0, 0, 1, 0, 0)" xlink:href="#Unbenannter_Verlauf_23"/><linearGradient id="Unbenannter_Verlauf_23-4" x1="109.23" y1="464.65" x2="186.88" y2="464.65" gradientTransform="matrix(1, 0, 0, 1, 0, 0)" xlink:href="#Unbenannter_Verlauf_23"/><linearGradient id="Unbenannter_Verlauf_23-5" x1="109.23" y1="477.59" x2="155.82" y2="477.59" gradientTransform="matrix(1, 0, 0, 1, 0, 0)" xlink:href="#Unbenannter_Verlauf_23"/><linearGradient id="Unbenannter_Verlauf_51" x1="338.51" y1="673.49" x2="509.33" y2="673.49" gradientUnits="userSpaceOnUse"><stop offset="0" stop-color="#04befe"/><stop offset="1" stop-color="#4481eb"/></linearGradient><linearGradient id="Unbenannter_Verlauf_23-6" x1="460.99" y1="758.9" x2="460.99" y2="588.08" gradientTransform="matrix(1, 0, 0, 1, 0, 0)" xlink:href="#Unbenannter_Verlauf_23"/><linearGradient id="Unbenannter_Verlauf_51-2" x1="556.09" y1="673.49" x2="726.9" y2="673.49" xlink:href="#Unbenannter_Verlauf_51"/><linearGradient id="Unbenannter_Verlauf_23-7" x1="678.57" y1="758.9" x2="678.57" y2="588.08" gradientTransform="matrix(1, 0, 0, 1, 0, 0)" xlink:href="#Unbenannter_Verlauf_23"/><linearGradient id="Unbenannter_Verlauf_30" x1="358.79" y1="782.05" x2="923.31" y2="782.05" gradientUnits="userSpaceOnUse"><stop offset="0" stop-color="#667eea"/><stop offset="1" stop-color="#764ba2"/></linearGradient><linearGradient id="Unbenannter_Verlauf_30-2" x1="641.05" y1="782.05" x2="923.31" y2="782.05" xlink:href="#Unbenannter_Verlauf_30"/><linearGradient id="Unbenannter_Verlauf_51-3" x1="772.31" y1="465.37" x2="943.12" y2="465.37" xlink:href="#Unbenannter_Verlauf_51"/><linearGradient id="Unbenannter_Verlauf_23-8" x1="894.79" y1="550.78" x2="894.79" y2="379.96" gradientTransform="matrix(1, 0, 0, 1, 0, 0)" xlink:href="#Unbenannter_Verlauf_23"/><linearGradient id="Unbenannter_Verlauf_42" x1="859.61" y1="782.05" x2="987" y2="782.05" gradientUnits="userSpaceOnUse"><stop offset="0" stop-color="#1e3c72"/><stop offset="1" stop-color="#1e3c72"/></linearGradient><linearGradient id="Unbenannter_Verlauf_42-2" x1="295.09" y1="782.05" x2="422.48" y2="782.05" xlink:href="#Unbenannter_Verlauf_42"/><linearGradient id="Unbenannter_Verlauf_34-2" x1="577.35" y1="782.05" x2="704.74" y2="782.05" xlink:href="#Unbenannter_Verlauf_34"/><linearGradient id="Unbenannter_Verlauf_17" x1="335.63" y1="782.05" x2="381.94" y2="782.05" gradientUnits="userSpaceOnUse"><stop offset="0" stop-color="#8ec5fc"/><stop offset="1" stop-color="#e0c3fc"/></linearGradient><linearGradient id="Unbenannter_Verlauf_17-2" x1="900.15" y1="782.05" x2="946.46" y2="782.05" xlink:href="#Unbenannter_Verlauf_17"/><linearGradient id="Unbenannter_Verlauf_77" x1="295.09" y1="174.1" x2="987" y2="174.1" xlink:href="#Unbenannter_Verlauf_30"/><linearGradient id="Unbenannter_Verlauf_17-3" x1="617.89" y1="782.05" x2="664.2" y2="782.05" xlink:href="#Unbenannter_Verlauf_17"/><linearGradient id="Unbenannter_Verlauf_30-3" x1="77.69" y1="782.05" x2="359.55" y2="782.05" xlink:href="#Unbenannter_Verlauf_30"/><linearGradient id="Unbenannter_Verlauf_42-3" x1="296.62" y1="782.05" x2="424.01" y2="782.05" xlink:href="#Unbenannter_Verlauf_42"/><linearGradient id="Unbenannter_Verlauf_42-4" x1="14" y1="782.05" x2="141.39" y2="782.05" xlink:href="#Unbenannter_Verlauf_42"/><linearGradient id="Unbenannter_Verlauf_34-3" x1="296.26" y1="782.05" x2="423.65" y2="782.05" xlink:href="#Unbenannter_Verlauf_34"/><linearGradient id="Unbenannter_Verlauf_17-4" x1="54.54" y1="782.05" x2="100.85" y2="782.05" xlink:href="#Unbenannter_Verlauf_17"/><linearGradient id="Unbenannter_Verlauf_17-5" x1="337.16" y1="782.05" x2="383.47" y2="782.05" xlink:href="#Unbenannter_Verlauf_17"/><linearGradient id="Unbenannter_Verlauf_17-6" x1="336.8" y1="782.05" x2="383.11" y2="782.05" xlink:href="#Unbenannter_Verlauf_17"/></defs><title>conv</title><path class="cls-1" d="M40.57,445.33C34.21,324.19,28.16,112.19,183.9,114.1c60.64.74,106.14,72.21,163,62.08C400.7,166.62,423,96,467,67.85c54.73-35,124.12-41.15,170.59,14.69,55.61,66.82,15.55,129.28,60.91,192.32,74.8,104,113.43-78.19,203.85,100.84,123.25,244,6.6,584.89-259.48,503.52a92.48,92.48,0,0,1-35.32-20.51C457.07,720.6,411.41,880.6,241.11,837.16,74.6,794.69,48.66,599.27,40.57,445.33Z" transform="translate(-14 -31.51)"/><path class="cls-2" d="M40.57,503C34.21,381.89,28.16,169.89,183.9,171.8c60.64.74,106.14,72.2,163,62.08,53.75-9.57,76-80.16,120.09-108.34,54.73-35,124.12-41.15,170.59,14.7,55.61,66.82,15.55,129.28,60.91,192.31,74.8,104,113.43-78.18,203.85,100.85,123.25,244,6.6,584.88-259.48,503.52a92.5,92.5,0,0,1-35.32-20.52c-150.52-138.1-196.18,21.9-366.48-21.54C74.6,852.39,48.66,657,40.57,503Z" transform="translate(-14 -31.51)"/><path class="cls-3" d="M17.77,425.66C20.32,295.33,30.25,67.64,197,81.73,262,87.22,305.2,167.34,367,160.89c58.35-6.1,87.7-80,137.09-106.82C565.43,20.78,640.28,19.57,685.78,83c54.43,75.92,6.66,139.77,50.39,210.83,72.14,117.22,127.63-75,210.69,123.86,113.22,271.06-38.18,627.39-317.07,519.6a99.48,99.48,0,0,1-36.27-24.72c-150.64-159.67-212,8.29-391.13-51.45C27.22,802.74,14.53,591.27,17.77,425.66Z" transform="translate(-14 -31.51)"/><path class="cls-4" d="M262.64,720.07H61.2V440c0-20.82,10.7-37.71,23.9-37.71H238.73c13.2,0,23.91,16.89,23.91,37.71Z" transform="translate(-14 -31.51)"/><rect class="cls-5" x="95.5" y="398" width="104.83" height="124.25" rx="2.76"/><rect class="cls-6" x="97.44" y="603.78" width="100.95" height="11.65" rx="5.43"/><rect class="cls-6" x="97.44" y="627.07" width="100.95" height="11.65" rx="5.43"/><circle class="cls-7" cx="134.33" cy="557.19" r="7.77"/><circle class="cls-8" cx="161.51" cy="557.19" r="7.77"/><rect class="cls-9" x="109.23" y="436.82" width="62.12" height="3.88" rx="1.81"/><rect class="cls-10" x="109.23" y="449.77" width="69.89" height="3.88" rx="1.81"/><rect class="cls-11" x="109.23" y="462.71" width="77.65" height="3.88" rx="1.81"/><rect class="cls-12" x="109.23" y="475.65" width="46.59" height="3.88" rx="1.81"/><g id="conv"><path class="cls-13" d="M489.06,758.9H358.79a20.28,20.28,0,0,1-20.28-20.28V608.35a20.28,20.28,0,0,1,20.28-20.27H489.06a20.28,20.28,0,0,1,20.27,20.27V738.62A20.28,20.28,0,0,1,489.06,758.9Z" transform="translate(-14 -31.51)"/><path class="cls-14" d="M489.06,588.08H435.63l-23,170.82h76.4a20.28,20.28,0,0,0,20.27-20.28V608.35A20.28,20.28,0,0,0,489.06,588.08Z" transform="translate(-14 -31.51)"/><path class="cls-15" d="M706.63,758.9H576.36a20.27,20.27,0,0,1-20.27-20.28V608.35a20.27,20.27,0,0,1,20.27-20.27H706.63a20.27,20.27,0,0,1,20.27,20.27V738.62A20.27,20.27,0,0,1,706.63,758.9Z" transform="translate(-14 -31.51)"/><path class="cls-16" d="M706.63,588.08H653.21l-23,170.82h76.4a20.27,20.27,0,0,0,20.27-20.28V608.35A20.27,20.27,0,0,0,706.63,588.08Z" transform="translate(-14 -31.51)"/><path class="cls-17" d="M358.79,718.35H923.31V845.74H358.79Z" transform="translate(-14 -31.51)"/><path class="cls-18" d="M641.05,718.35H923.31V845.74H641.05Z" transform="translate(-14 -31.51)"/><path class="cls-19" d="M923.31,758.9H358.79a23.15,23.15,0,1,0,0,46.3H923.31a23.15,23.15,0,1,0,0-46.3Z" transform="translate(-14 -31.51)"/><path class="cls-20" d="M946.46,782.05a23.18,23.18,0,0,0-23.15-23.15H641.05v46.3H923.31A23.18,23.18,0,0,0,946.46,782.05Z" transform="translate(-14 -31.51)"/><path class="cls-19" d="M981.06,355.18,878.44,252.56V174.1a20.28,20.28,0,0,0-40.55,0v78.46L735.27,355.18a20.27,20.27,0,0,0,0,28.67l43.43,43.42a20.27,20.27,0,1,0,28.67-28.66l-29.1-29.09,79.9-79.9,79.89,79.9L909,398.61a20.27,20.27,0,1,0,28.67,28.66l43.42-43.42A20.27,20.27,0,0,0,981.06,355.18Z" transform="translate(-14 -31.51)"/><path class="cls-20" d="M938.06,369.52,909,398.61a20.27,20.27,0,1,0,28.67,28.66l43.42-43.42a20.27,20.27,0,0,0,0-28.67L878.44,252.56V174.1a20.28,20.28,0,0,0-20.28-20.27V289.62Z" transform="translate(-14 -31.51)"/><path class="cls-21" d="M922.85,550.78H792.58a20.27,20.27,0,0,1-20.27-20.27V400.23A20.27,20.27,0,0,1,792.58,380H922.85a20.27,20.27,0,0,1,20.27,20.27V530.51A20.26,20.26,0,0,1,922.85,550.78Z" transform="translate(-14 -31.51)"/><path class="cls-22" d="M922.85,380H869.43l-23,170.82h76.39a20.27,20.27,0,0,0,20.27-20.27V400.23A20.27,20.27,0,0,0,922.85,380Z" transform="translate(-14 -31.51)"/><path class="cls-23" d="M923.31,845.74A63.7,63.7,0,1,1,987,782.05,63.77,63.77,0,0,1,923.31,845.74Z" transform="translate(-14 -31.51)"/><path class="cls-24" d="M358.79,845.74a63.7,63.7,0,1,1,63.69-63.69A63.76,63.76,0,0,1,358.79,845.74Z" transform="translate(-14 -31.51)"/><path class="cls-25" d="M641.05,845.74a63.7,63.7,0,1,1,63.69-63.69A63.77,63.77,0,0,1,641.05,845.74Z" transform="translate(-14 -31.51)"/><path class="cls-26" d="M358.79,758.9a23.15,23.15,0,1,0,23.15,23.15A23.18,23.18,0,0,0,358.79,758.9Z" transform="translate(-14 -31.51)"/><path class="cls-27" d="M923.31,758.9a23.15,23.15,0,1,0,23.15,23.15A23.18,23.18,0,0,0,923.31,758.9Z" transform="translate(-14 -31.51)"/><path class="cls-28" d="M966.73,194.37H315.36a20.27,20.27,0,0,1,0-40.54H966.73a20.27,20.27,0,0,1,0,40.54Z" transform="translate(-14 -31.51)"/><path class="cls-19" d="M686,827.54a63.76,63.76,0,0,0,0-90.08l-90.08,90.08A63.76,63.76,0,0,0,686,827.54Z" transform="translate(-14 -31.51)"/><path class="cls-29" d="M641.05,758.9a23.15,23.15,0,1,0,23.15,23.15A23.18,23.18,0,0,0,641.05,758.9Z" transform="translate(-14 -31.51)"/></g><path class="cls-30" d="M77.69,718.35H359.55V845.74H77.69Z" transform="translate(-14 -31.51)"/><path class="cls-19" d="M356.74,758.9H66.45c-6.57,0-11.91,10.38-11.91,23.15s5.34,23.15,11.91,23.15H356.74c6.56,0,11.9-10.39,11.9-23.15S363.3,758.9,356.74,758.9Z" transform="translate(-14 -31.51)"/><path class="cls-31" d="M360.32,845.74A63.7,63.7,0,1,1,424,782.05,63.77,63.77,0,0,1,360.32,845.74Z" transform="translate(-14 -31.51)"/><path class="cls-32" d="M77.69,845.74a63.7,63.7,0,1,1,63.7-63.69A63.76,63.76,0,0,1,77.69,845.74Z" transform="translate(-14 -31.51)"/><path class="cls-33" d="M360,845.74a63.7,63.7,0,1,1,63.7-63.69A63.76,63.76,0,0,1,360,845.74Z" transform="translate(-14 -31.51)"/><path class="cls-34" d="M77.69,758.9a23.15,23.15,0,1,0,23.16,23.15A23.18,23.18,0,0,0,77.69,758.9Z" transform="translate(-14 -31.51)"/><path class="cls-35" d="M360.32,758.9a23.15,23.15,0,1,0,23.15,23.15A23.18,23.18,0,0,0,360.32,758.9Z" transform="translate(-14 -31.51)"/><path class="cls-19" d="M404.86,827.54a63.76,63.76,0,0,0,0-90.08l-90.08,90.08A63.76,63.76,0,0,0,404.86,827.54Z" transform="translate(-14 -31.51)"/><path class="cls-36" d="M360,758.9a23.15,23.15,0,1,0,23.16,23.15A23.18,23.18,0,0,0,360,758.9Z" transform="translate(-14 -31.51)"/></svg>