<svg id="Ebene_1" data-name="Ebene 1" xmlns="http://www.w3.org/2000/svg" xmlns:xlink="http://www.w3.org/1999/xlink" viewBox="0 0 793.36 941.17"><defs><style>.cls-1,.cls-2{opacity:0.3;}.cls-1{fill:url(#Unbenannter_Verlauf_62);}.cls-2{fill:url(#Unbenannter_Verlauf_62-2);}.cls-3{opacity:0.4;fill:url(#Unbenannter_Verlauf_23);}.cls-4{fill:#ff9a00;}.cls-5{fill:url(#Unbenannter_Verlauf_51);}.cls-6{fill:url(#Unbenannter_Verlauf_23-2);}.cls-7{fill:url(#Unbenannter_Verlauf_51-2);}.cls-8{fill:url(#Unbenannter_Verlauf_23-3);}.cls-9{fill:url(#Unbenannter_Verlauf_51-3);}.cls-10{fill:url(#Unbenannter_Verlauf_23-4);}.cls-11{fill:url(#Unbenannter_Verlauf_51-4);}.cls-12{fill:url(#Unbenannter_Verlauf_23-5);}.cls-13{fill:url(#Unbenannter_Verlauf_51-5);}.cls-14{fill:url(#Unbenannter_Verlauf_23-6);}.cls-15{fill:url(#Unbenannter_Verlauf_51-6);}.cls-16{fill:url(#Unbenannter_Verlauf_23-7);}.cls-17{fill:url(#Unbenannter_Verlauf_51-7);}.cls-18{fill:url(#Unbenannter_Verlauf_23-8);}.cls-19{fill:url(#Unbenannter_Verlauf_51-8);}.cls-20{fill:url(#Unbenannter_Verlauf_23-9);}.cls-21{fill:url(#Unbenannter_Verlauf_51-9);}.cls-22{fill:url(#Unbenannter_Verlauf_23-10);}.cls-23,.cls-37{fill:#ffc200;}.cls-23,.cls-24{opacity:0.5;}.cls-24{fill:gold;}.cls-25{fill:url(#Unbenannter_Verlauf_34);}.cls-26{fill:url(#Unbenannter_Verlauf_33);}.cls-27{fill:url(#Unbenannter_Verlauf_33-2);}.cls-28{fill:url(#Unbenannter_Verlauf_33-3);}.cls-29{fill:url(#Unbenannter_Verlauf_33-4);}.cls-30{fill:url(#Unbenannter_Verlauf_33-5);}.cls-31{fill:url(#Unbenannter_Verlauf_33-6);}.cls-32{fill:url(#Unbenannter_Verlauf_33-7);}.cls-33{fill:#003365;}.cls-34{fill:#000b34;}.cls-35{fill:url(#Unbenannter_Verlauf_51-10);}.cls-36{fill:url(#Unbenannter_Verlauf_23-11);}.cls-38{fill:url(#Unbenannter_Verlauf_51-11);}.cls-39{fill:url(#Unbenannter_Verlauf_23-12);}.cls-40{fill:url(#Unbenannter_Verlauf_51-12);}.cls-41{fill:url(#Unbenannter_Verlauf_23-13);}.cls-42{fill:url(#Unbenannter_Verlauf_51-13);}.cls-43{fill:url(#Unbenannter_Verlauf_23-14);}.cls-44{fill:url(#Unbenannter_Verlauf_51-14);}.cls-45{fill:url(#Unbenannter_Verlauf_23-15);}.cls-46{fill:url(#Unbenannter_Verlauf_51-15);}.cls-47{fill:url(#Unbenannter_Verlauf_23-16);}</style><linearGradient id="Unbenannter_Verlauf_62" x1="728.56" y1="846.69" x2="394.9" y2="465.36" gradientTransform="matrix(0.24, 0.97, 1.07, -0.27, -188.49, 226.9)" gradientUnits="userSpaceOnUse"><stop offset="0" stop-color="#c7d3ff"/><stop offset="0.59" stop-color="#e7d8f5"/><stop offset="1" stop-color="#ffdbed"/></linearGradient><linearGradient id="Unbenannter_Verlauf_62-2" x1="711.53" y1="805.24" x2="377.87" y2="423.91" xlink:href="#Unbenannter_Verlauf_62"/><linearGradient id="Unbenannter_Verlauf_23" x1="744.25" y1="852.98" x2="385.7" y2="443.21" gradientTransform="matrix(0.17, 0.98, 1.09, -0.19, -162.5, 180.59)" gradientUnits="userSpaceOnUse"><stop offset="0" stop-color="#89f7fe"/><stop offset="1" stop-color="#66a6ff"/></linearGradient><linearGradient id="Unbenannter_Verlauf_51" x1="508.29" y1="809.67" x2="642.44" y2="809.67" gradientUnits="userSpaceOnUse"><stop offset="0" stop-color="#04befe"/><stop offset="1" stop-color="#4481eb"/></linearGradient><linearGradient id="Unbenannter_Verlauf_23-2" x1="604.48" y1="876.75" x2="604.48" y2="742.59" gradientTransform="matrix(1, 0, 0, 1, 0, 0)" xlink:href="#Unbenannter_Verlauf_23"/><linearGradient id="Unbenannter_Verlauf_51-2" x1="642.59" y1="809.67" x2="776.73" y2="809.67" xlink:href="#Unbenannter_Verlauf_51"/><linearGradient id="Unbenannter_Verlauf_23-3" x1="738.78" y1="876.75" x2="738.78" y2="742.59" gradientTransform="matrix(1, 0, 0, 1, 0, 0)" xlink:href="#Unbenannter_Verlauf_23"/><linearGradient id="Unbenannter_Verlauf_51-3" x1="373.99" y1="809.67" x2="508.14" y2="809.67" xlink:href="#Unbenannter_Verlauf_51"/><linearGradient id="Unbenannter_Verlauf_23-4" x1="470.18" y1="876.75" x2="470.18" y2="742.59" gradientTransform="matrix(1, 0, 0, 1, 0, 0)" xlink:href="#Unbenannter_Verlauf_23"/><linearGradient id="Unbenannter_Verlauf_51-4" x1="239.7" y1="809.67" x2="373.85" y2="809.67" xlink:href="#Unbenannter_Verlauf_51"/><linearGradient id="Unbenannter_Verlauf_23-5" x1="335.89" y1="876.75" x2="335.89" y2="742.59" gradientTransform="matrix(1, 0, 0, 1, 0, 0)" xlink:href="#Unbenannter_Verlauf_23"/><linearGradient id="Unbenannter_Verlauf_51-5" x1="575.04" y1="675.37" x2="709.19" y2="675.37" xlink:href="#Unbenannter_Verlauf_51"/><linearGradient id="Unbenannter_Verlauf_23-6" x1="671.23" y1="742.45" x2="671.23" y2="608.3" gradientTransform="matrix(1, 0, 0, 1, 0, 0)" xlink:href="#Unbenannter_Verlauf_23"/><linearGradient id="Unbenannter_Verlauf_51-6" x1="440.75" y1="675.37" x2="574.9" y2="675.37" xlink:href="#Unbenannter_Verlauf_51"/><linearGradient id="Unbenannter_Verlauf_23-7" x1="536.94" y1="742.45" x2="536.94" y2="608.3" gradientTransform="matrix(1, 0, 0, 1, 0, 0)" xlink:href="#Unbenannter_Verlauf_23"/><linearGradient id="Unbenannter_Verlauf_51-7" x1="509.86" y1="541.08" x2="644.01" y2="541.08" xlink:href="#Unbenannter_Verlauf_51"/><linearGradient id="Unbenannter_Verlauf_23-8" x1="606.05" y1="608.15" x2="606.05" y2="474" gradientTransform="matrix(1, 0, 0, 1, 0, 0)" xlink:href="#Unbenannter_Verlauf_23"/><linearGradient id="Unbenannter_Verlauf_51-8" x1="375.56" y1="541.08" x2="509.71" y2="541.08" xlink:href="#Unbenannter_Verlauf_51"/><linearGradient id="Unbenannter_Verlauf_23-9" x1="471.75" y1="608.15" x2="471.75" y2="474" gradientTransform="matrix(1, 0, 0, 1, 0, 0)" xlink:href="#Unbenannter_Verlauf_23"/><linearGradient id="Unbenannter_Verlauf_51-9" x1="306.45" y1="675.37" x2="440.6" y2="675.37" xlink:href="#Unbenannter_Verlauf_51"/><linearGradient id="Unbenannter_Verlauf_23-10" x1="402.64" y1="742.45" x2="402.64" y2="608.3" gradientTransform="matrix(1, 0, 0, 1, 0, 0)" xlink:href="#Unbenannter_Verlauf_23"/><linearGradient id="Unbenannter_Verlauf_34" x1="109.48" y1="747.58" x2="375.2" y2="747.58" gradientUnits="userSpaceOnUse"><stop offset="0" stop-color="#1e3c72"/><stop offset="1" stop-color="#667eea"/></linearGradient><linearGradient id="Unbenannter_Verlauf_33" x1="191.73" y1="705.99" x2="280.12" y2="705.99" gradientUnits="userSpaceOnUse"><stop offset="0" stop-color="#007adf" stop-opacity="0.8"/><stop offset="1" stop-color="#7579ff"/></linearGradient><linearGradient id="Unbenannter_Verlauf_33-2" x1="297.78" y1="775.63" x2="349.72" y2="775.63" gradientTransform="translate(-27.4 -30.6)" xlink:href="#Unbenannter_Verlauf_33"/><linearGradient id="Unbenannter_Verlauf_33-3" x1="340.78" y1="828.63" x2="392.72" y2="828.63" gradientTransform="translate(-123.4 -40.6)" xlink:href="#Unbenannter_Verlauf_33"/><linearGradient id="Unbenannter_Verlauf_33-4" x1="340.78" y1="735.63" x2="392.72" y2="735.63" gradientTransform="translate(-30.4 52.4)" xlink:href="#Unbenannter_Verlauf_33"/><linearGradient id="Unbenannter_Verlauf_33-5" x1="340.78" y1="642.63" x2="392.72" y2="642.63" gradientTransform="translate(62.6 145.4)" xlink:href="#Unbenannter_Verlauf_33"/><linearGradient id="Unbenannter_Verlauf_33-6" x1="297.78" y1="696.63" x2="349.72" y2="696.63" gradientTransform="translate(51.6 48.4)" xlink:href="#Unbenannter_Verlauf_33"/><linearGradient id="Unbenannter_Verlauf_33-7" x1="138.05" y1="748.6" x2="334.88" y2="748.6" xlink:href="#Unbenannter_Verlauf_33"/><linearGradient id="Unbenannter_Verlauf_51-10" x1="414.14" y1="329.37" x2="584.96" y2="329.37" xlink:href="#Unbenannter_Verlauf_51"/><linearGradient id="Unbenannter_Verlauf_23-11" x1="536.62" y1="414.78" x2="536.62" y2="243.96" gradientTransform="matrix(1, 0, 0, 1, 0, 0)" xlink:href="#Unbenannter_Verlauf_23"/><linearGradient id="Unbenannter_Verlauf_51-11" x1="278.34" y1="719.37" x2="315.09" y2="719.37" xlink:href="#Unbenannter_Verlauf_51"/><linearGradient id="Unbenannter_Verlauf_23-12" x1="304.69" y1="737.75" x2="304.69" y2="701" gradientTransform="matrix(1, 0, 0, 1, 0, 0)" xlink:href="#Unbenannter_Verlauf_23"/><linearGradient id="Unbenannter_Verlauf_51-12" x1="361.34" y1="719.37" x2="398.09" y2="719.37" xlink:href="#Unbenannter_Verlauf_51"/><linearGradient id="Unbenannter_Verlauf_23-13" x1="387.69" y1="737.75" x2="387.69" y2="701" gradientTransform="matrix(1, 0, 0, 1, 0, 0)" xlink:href="#Unbenannter_Verlauf_23"/><linearGradient id="Unbenannter_Verlauf_51-13" x1="411.34" y1="813.37" x2="448.09" y2="813.37" xlink:href="#Unbenannter_Verlauf_51"/><linearGradient id="Unbenannter_Verlauf_23-14" x1="437.69" y1="831.75" x2="437.69" y2="795" gradientTransform="matrix(1, 0, 0, 1, 0, 0)" xlink:href="#Unbenannter_Verlauf_23"/><linearGradient id="Unbenannter_Verlauf_51-14" x1="318.34" y1="813.37" x2="355.09" y2="813.37" xlink:href="#Unbenannter_Verlauf_51"/><linearGradient id="Unbenannter_Verlauf_23-15" x1="344.69" y1="831.75" x2="344.69" y2="795" gradientTransform="matrix(1, 0, 0, 1, 0, 0)" xlink:href="#Unbenannter_Verlauf_23"/><linearGradient id="Unbenannter_Verlauf_51-15" x1="225.34" y1="813.37" x2="262.09" y2="813.37" xlink:href="#Unbenannter_Verlauf_51"/><linearGradient id="Unbenannter_Verlauf_23-16" x1="251.69" y1="831.75" x2="251.69" y2="795" gradientTransform="matrix(1, 0, 0, 1, 0, 0)" xlink:href="#Unbenannter_Verlauf_23"/></defs><title>asset</title><path class="cls-1" d="M595.76,164.47c102.44,6,281.25,20.79,265,151.55-6.31,50.91-70.66,82.47-67.48,131.27,3,46.09,60.27,71.44,79.83,111.12,24.3,49.29,23,108.21-28.35,142.05-61.39,40.5-110.15,1-167.4,33.18-94.42,53.15,55.1,102.7-103.9,162-216.69,80.74-492.37-49.28-399-265.37a78.23,78.23,0,0,1,20.55-27.77c130.23-113.6,0-167,52.47-306.11,51.32-136,218.06-139.51,348.24-131.87Z" transform="translate(-99.88 -17.83)"/><path class="cls-2" d="M547.25,159.06c102.44,6,281.25,20.79,265,151.56-6.31,50.9-70.66,82.46-67.48,131.26,3,46.09,60.27,71.45,79.83,111.13,24.3,49.29,23,108.2-28.35,142-61.39,40.49-110.15,1-167.4,33.17C534.48,781.38,684,830.93,525,890.18,308.31,970.92,32.63,840.9,126,624.81A78.35,78.35,0,0,1,146.54,597c130.23-113.6,0-167,52.47-306.11,51.32-136,218.06-139.5,348.24-131.87Z" transform="translate(-99.88 -17.83)"/><path class="cls-3" d="M614.44,147.14c109.33,14.36,299.84,44.05,272.35,183-10.7,54.08-82.11,82.92-82.48,135.47-.34,49.63,59.07,81.24,77,125.28,22.24,54.71,16.24,117.76-41.37,150.06-68.93,38.65-118.14-7.5-182,22.6C552.6,813.17,709,877.84,534,929c-238.5,69.77-523.91-90.92-407.13-315.3a84,84,0,0,1,24.18-28.17c148.36-111.69,12.9-179,79.92-324,65.52-141.81,244.51-132.65,383.45-114.4Z" transform="translate(-99.88 -17.83)"/><path class="cls-4" d="M792.67,587.75a38,38,0,0,0,30.41-15.21l57.54-76.71A38,38,0,0,0,850.2,435h-228a38,38,0,0,0-30.41,15.21L500,572.54v15.21Z" transform="translate(-99.88 -17.83)"/><path class="cls-5" d="M626.52,876.75H524.21a15.93,15.93,0,0,1-15.92-15.92V758.51a15.92,15.92,0,0,1,15.92-15.92H626.52a15.92,15.92,0,0,1,15.92,15.92V860.83A15.92,15.92,0,0,1,626.52,876.75Z" transform="translate(-99.88 -17.83)"/><path class="cls-6" d="M626.52,742.59h-42l-18,134.16h60a15.93,15.93,0,0,0,15.92-15.92V758.51A15.92,15.92,0,0,0,626.52,742.59Z" transform="translate(-99.88 -17.83)"/><path class="cls-7" d="M760.81,876.75H658.5a15.92,15.92,0,0,1-15.91-15.92V758.51a15.91,15.91,0,0,1,15.91-15.92H760.81a15.92,15.92,0,0,1,15.92,15.92V860.83A15.92,15.92,0,0,1,760.81,876.75Z" transform="translate(-99.88 -17.83)"/><path class="cls-8" d="M760.81,742.59H718.86l-18,134.16h60a15.92,15.92,0,0,0,15.92-15.92V758.51A15.92,15.92,0,0,0,760.81,742.59Z" transform="translate(-99.88 -17.83)"/><path class="cls-9" d="M492.22,876.75H389.91A15.93,15.93,0,0,1,374,860.83V758.51a15.92,15.92,0,0,1,15.92-15.92H492.22a15.92,15.92,0,0,1,15.92,15.92V860.83A15.92,15.92,0,0,1,492.22,876.75Z" transform="translate(-99.88 -17.83)"/><path class="cls-10" d="M492.22,742.59h-42l-18,134.16h60a15.92,15.92,0,0,0,15.92-15.92V758.51A15.92,15.92,0,0,0,492.22,742.59Z" transform="translate(-99.88 -17.83)"/><path class="cls-11" d="M357.93,876.75H255.62a15.92,15.92,0,0,1-15.92-15.92V758.51a15.92,15.92,0,0,1,15.92-15.92H357.93a15.92,15.92,0,0,1,15.92,15.92V860.83A15.92,15.92,0,0,1,357.93,876.75Z" transform="translate(-99.88 -17.83)"/><path class="cls-12" d="M357.93,742.59H316l-18,134.16h60a15.93,15.93,0,0,0,15.92-15.92V758.51A15.92,15.92,0,0,0,357.93,742.59Z" transform="translate(-99.88 -17.83)"/><path class="cls-13" d="M693.27,742.45H591A15.92,15.92,0,0,1,575,726.53V624.22A15.92,15.92,0,0,1,591,608.3H693.27a15.92,15.92,0,0,1,15.92,15.92V726.53A15.92,15.92,0,0,1,693.27,742.45Z" transform="translate(-99.88 -17.83)"/><path class="cls-14" d="M693.27,608.3H651.32l-18,134.15h60a15.92,15.92,0,0,0,15.92-15.92V624.22A15.92,15.92,0,0,0,693.27,608.3Z" transform="translate(-99.88 -17.83)"/><path class="cls-15" d="M559,742.45H456.67a15.92,15.92,0,0,1-15.92-15.92V624.22a15.92,15.92,0,0,1,15.92-15.92H559a15.92,15.92,0,0,1,15.92,15.92V726.53A15.92,15.92,0,0,1,559,742.45Z" transform="translate(-99.88 -17.83)"/><path class="cls-16" d="M559,608.3H517L499,742.45h60a15.92,15.92,0,0,0,15.92-15.92V624.22A15.92,15.92,0,0,0,559,608.3Z" transform="translate(-99.88 -17.83)"/><path class="cls-17" d="M628.09,608.15H525.78a15.92,15.92,0,0,1-15.92-15.92V489.92A15.92,15.92,0,0,1,525.78,474H628.09A15.92,15.92,0,0,1,644,489.92V592.23A15.92,15.92,0,0,1,628.09,608.15Z" transform="translate(-99.88 -17.83)"/><path class="cls-18" d="M628.09,474h-42l-18,134.15h60A15.92,15.92,0,0,0,644,592.23V489.92A15.92,15.92,0,0,0,628.09,474Z" transform="translate(-99.88 -17.83)"/><path class="cls-19" d="M493.79,608.15H391.48a15.92,15.92,0,0,1-15.92-15.92V489.92A15.92,15.92,0,0,1,391.48,474H493.79a15.92,15.92,0,0,1,15.92,15.92V592.23A15.91,15.91,0,0,1,493.79,608.15Z" transform="translate(-99.88 -17.83)"/><path class="cls-20" d="M493.79,474h-42l-18,134.15h60a15.92,15.92,0,0,0,15.92-15.92V489.92A15.92,15.92,0,0,0,493.79,474Z" transform="translate(-99.88 -17.83)"/><path class="cls-21" d="M424.68,742.45H322.37a15.92,15.92,0,0,1-15.92-15.92V624.22a15.92,15.92,0,0,1,15.92-15.92H424.68a15.92,15.92,0,0,1,15.92,15.92V726.53A15.92,15.92,0,0,1,424.68,742.45Z" transform="translate(-99.88 -17.83)"/><path class="cls-22" d="M424.68,608.3H382.73L364.68,742.45h60a15.92,15.92,0,0,0,15.92-15.92V624.22A15.92,15.92,0,0,0,424.68,608.3Z" transform="translate(-99.88 -17.83)"/><path class="cls-23" d="M500,573.54,408.25,451.21A38,38,0,0,0,377.84,436h-228a38,38,0,0,0-30.42,60.83l57.54,76.71" transform="translate(-99.88 -17.83)"/><path class="cls-24" d="M176.92,572.54V921a38,38,0,0,0,38,38H785.06a38,38,0,0,0,38-38V572.54Z" transform="translate(-99.88 -17.83)"/><path class="cls-23" d="M500,959H785.06a38,38,0,0,0,38-38V572.54H500Z" transform="translate(-99.88 -17.83)"/><rect class="cls-25" x="109.48" y="590.13" width="265.71" height="314.92" rx="6.99"/><rect class="cls-26" x="191.73" y="701.07" width="88.38" height="9.84" rx="4.92"/><rect class="cls-27" x="270.38" y="740.11" width="51.94" height="9.84" rx="4.92" transform="translate(941.49 430.85) rotate(90)"/><rect class="cls-28" x="217.38" y="783.11" width="51.94" height="9.84" rx="4.92" transform="translate(931.49 526.85) rotate(90)"/><rect class="cls-29" x="310.38" y="783.11" width="51.94" height="9.84" rx="4.92" transform="translate(1024.49 433.85) rotate(90)"/><rect class="cls-30" x="403.38" y="783.11" width="51.94" height="9.84" rx="4.92" transform="translate(1117.49 340.85) rotate(90)"/><rect class="cls-31" x="349.38" y="740.11" width="51.94" height="9.84" rx="4.92" transform="translate(1020.49 351.85) rotate(90)"/><rect class="cls-32" x="138.05" y="743.68" width="196.82" height="9.84" rx="4.92"/><path class="cls-33" d="M622.89,219.18,520.27,116.56V38.1a20.27,20.27,0,1,0-40.54,0v78.46L377.11,219.18a20.27,20.27,0,0,0,0,28.67l43.42,43.42a20.27,20.27,0,1,0,28.67-28.66l-29.09-29.09L500,153.62l79.89,79.9-29.08,29.09a20.27,20.27,0,1,0,28.66,28.66l43.42-43.42A20.27,20.27,0,0,0,622.89,219.18Z" transform="translate(-99.88 -17.83)"/><path class="cls-34" d="M579.89,233.52l-29.08,29.09a20.27,20.27,0,1,0,28.66,28.66l43.42-43.42a20.27,20.27,0,0,0,0-28.67L520.27,116.56V38.1A20.28,20.28,0,0,0,500,17.83V153.62Z" transform="translate(-99.88 -17.83)"/><path class="cls-35" d="M564.68,414.78H434.41a20.28,20.28,0,0,1-20.27-20.27V264.23A20.28,20.28,0,0,1,434.41,244H564.68A20.28,20.28,0,0,1,585,264.23V394.51A20.27,20.27,0,0,1,564.68,414.78Z" transform="translate(-99.88 -17.83)"/><path class="cls-36" d="M564.68,244H511.26l-23,170.82h76.39A20.28,20.28,0,0,0,585,394.51V264.23A20.28,20.28,0,0,0,564.68,244Z" transform="translate(-99.88 -17.83)"/><line class="cls-37" x1="400.12" y1="555.17" x2="400.12" y2="569.92"/><path class="cls-38" d="M310.73,737.75h-28a4.37,4.37,0,0,1-4.36-4.37v-28A4.36,4.36,0,0,1,282.7,701h28a4.36,4.36,0,0,1,4.36,4.36v28A4.37,4.37,0,0,1,310.73,737.75Z" transform="translate(-99.88 -17.83)"/><path class="cls-39" d="M310.73,701H299.24l-4.95,36.75h16.44a4.37,4.37,0,0,0,4.36-4.37v-28A4.36,4.36,0,0,0,310.73,701Z" transform="translate(-99.88 -17.83)"/><path class="cls-40" d="M393.73,737.75h-28a4.37,4.37,0,0,1-4.36-4.37v-28A4.36,4.36,0,0,1,365.7,701h28a4.36,4.36,0,0,1,4.36,4.36v28A4.37,4.37,0,0,1,393.73,737.75Z" transform="translate(-99.88 -17.83)"/><path class="cls-41" d="M393.73,701H382.24l-4.95,36.75h16.44a4.37,4.37,0,0,0,4.36-4.37v-28A4.36,4.36,0,0,0,393.73,701Z" transform="translate(-99.88 -17.83)"/><path class="cls-42" d="M443.73,831.75h-28a4.37,4.37,0,0,1-4.36-4.37v-28A4.36,4.36,0,0,1,415.7,795h28a4.36,4.36,0,0,1,4.36,4.36v28A4.37,4.37,0,0,1,443.73,831.75Z" transform="translate(-99.88 -17.83)"/><path class="cls-43" d="M443.73,795H432.24l-4.95,36.75h16.44a4.37,4.37,0,0,0,4.36-4.37v-28A4.36,4.36,0,0,0,443.73,795Z" transform="translate(-99.88 -17.83)"/><path class="cls-44" d="M350.73,831.75h-28a4.37,4.37,0,0,1-4.36-4.37v-28A4.36,4.36,0,0,1,322.7,795h28a4.36,4.36,0,0,1,4.36,4.36v28A4.37,4.37,0,0,1,350.73,831.75Z" transform="translate(-99.88 -17.83)"/><path class="cls-45" d="M350.73,795H339.24l-4.95,36.75h16.44a4.37,4.37,0,0,0,4.36-4.37v-28A4.36,4.36,0,0,0,350.73,795Z" transform="translate(-99.88 -17.83)"/><path class="cls-46" d="M257.73,831.75h-28a4.37,4.37,0,0,1-4.36-4.37v-28A4.36,4.36,0,0,1,229.7,795h28a4.36,4.36,0,0,1,4.36,4.36v28A4.37,4.37,0,0,1,257.73,831.75Z" transform="translate(-99.88 -17.83)"/><path class="cls-47" d="M257.73,795H246.24l-5,36.75h16.44a4.37,4.37,0,0,0,4.36-4.37v-28A4.36,4.36,0,0,0,257.73,795Z" transform="translate(-99.88 -17.83)"/></svg>