<svg id="Layer_1" data-name="Layer 1" xmlns="http://www.w3.org/2000/svg" xmlns:xlink="http://www.w3.org/1999/xlink" viewBox="0 0 979.16 979.44"><defs><style>.cls-1{fill:url(#linear-gradient);}.cls-2{fill:url(#linear-gradient-2);}</style><linearGradient id="linear-gradient" x1="54.51" y1="450.18" x2="985.47" y2="450.18" gradientUnits="userSpaceOnUse"><stop offset="0" stop-color="#00776a"/><stop offset="1" stop-color="#22cc8c"/></linearGradient><linearGradient id="linear-gradient-2" x1="6.3" y1="547.25" x2="937.26" y2="547.25" xlink:href="#linear-gradient"/></defs><title>portal_LOGO_outer</title><path class="cls-1" d="M107.9,565.54q-1.57-10.35-2.66-20.84-.44-4.2-.79-8.42.36,4.22.79,8.42Q106.33,555.18,107.9,565.54Zm877.56-78.21C982.18,357.74,923,242,831.23,163.38a441.32,441.32,0,0,0-622.29,48.31Q196.41,226.3,185.17,242c-.73,1-1.45,2-2.16,3s-1.41,2-2.11,3c-.88,1.26-1.74,2.53-2.6,3.8-.65.95-1.29,1.91-1.93,2.86q-3,4.44-5.79,9-1,1.63-2,3.26l-.38.59c-.75,1.24-1.52,2.48-2.26,3.73s-1.46,2.43-2.18,3.65c-.13.2-.25.41-.37.61-.73,1.23-1.44,2.46-2.14,3.69s-1.54,2.67-2.28,4c-1.1,2-2.19,3.92-3.24,5.89s-2.12,4-3.16,5.93c-.13.25-.26.5-.38.74-.66,1.25-1.3,2.5-1.93,3.76q-2.12,4.14-4.1,8.31c-.68,1.39-1.34,2.79-2,4.19q-2.29,4.91-4.47,9.89-1.1,2.49-2.14,5-1,2.33-1.95,4.67c-.05.14-.12.28-.17.43-.53,1.28-1,2.56-1.54,3.84-.83,2.06-1.63,4.12-2.42,6.2-.65,1.7-1.27,3.4-1.9,5.1s-1.25,3.42-1.84,5.15-1.21,3.44-1.79,5.17-1.16,3.46-1.71,5.19-1.13,3.48-1.66,5.23-1.07,3.46-1.57,5.19a.24.24,0,0,1,0,.11c-.5,1.64-1,3.27-1.43,4.92a5.21,5.21,0,0,1-.15.55q-.73,2.58-1.43,5.18h0q-.71,2.6-1.36,5.21t-1.34,5.36q-.66,2.67-1.26,5.35a.16.16,0,0,1,0,.08q-1.24,5.38-2.33,10.81t-2.07,10.94q-2,11-3.32,22.17-2.1,16.75-2.89,33.88c-.13,2.6-.24,5.19-.29,7.81a1.3,1.3,0,0,0,0,.2c0,.64,0,1.27-.05,1.91s0,1.35-.05,2c0,1.32-.05,2.65-.08,4,0,1.69,0,3.39,0,5.08s0,3.39,0,5.08l.06,3.47c0,.17,0,.33,0,.51,0,.68,0,1.35.05,2,0,.31,0,.61,0,.93,0,.61,0,1.24.06,1.85a2.62,2.62,0,0,0,0,.29q0,.57,0,1.13c0,.12,0,.25,0,.37v.05c.06,1.9.16,3.79.27,5.68,0,.11,0,.2,0,.31v0c0,.22,0,.43,0,.65,0,.76.09,1.52.13,2.28,0,.2,0,.41,0,.61s0,.53,0,.8c0,.55.08,1.1.12,1.65s.08,1.1.12,1.65l0,.46q0,.6.1,1.2a.23.23,0,0,0,0,.09q0,.37.06.74a5.7,5.7,0,0,0,.05.6c.06.92.14,1.82.23,2.72,0,.2,0,.42.05.62a2.45,2.45,0,0,1,0,.28c0,.18,0,.37.05.55l.16,1.7c.13,1.35.26,2.7.41,4l0,.32c.16,1.48.32,3,.51,4.42.06.6.14,1.21.22,1.8l.19,1.51c.06.55.14,1.09.2,1.64s.15,1.13.24,1.69c0,0,0,.1,0,.14.05.42.12.84.17,1.26.14,1,.28,2,.43,3,0,.24.06.47.11.7.18,1.26.38,2.52.58,3.77,0,.1,0,.18,0,.28.17,1.06.34,2.11.54,3.17.09.55.17,1.09.27,1.63s.17,1,.27,1.52l.42,2.36c0,.18.08.38.11.56.16.9.33,1.81.51,2.71.31,1.62.64,3.23,1,4.84.14.7.29,1.4.44,2.1s.27,1.31.42,2l.23,1c.16.75.32,1.51.5,2.27.12.54.25,1.09.38,1.63a1.88,1.88,0,0,0,.05.24c.2.92.43,1.83.65,2.75.15.65.3,1.28.46,1.93,0,.05,0,.12,0,.17.25,1,.51,2.06.76,3.09.22.85.43,1.69.66,2.53.17.67.34,1.32.53,2,.1.38.19.75.3,1.13s.19.74.3,1.12c.16.61.33,1.22.51,1.83a1.18,1.18,0,0,0,.05.18,2.1,2.1,0,0,0,.06.25c.37,1.31.73,2.62,1.11,3.92.31,1.06.61,2.11.94,3.16l0,.12c.09.3.17.59.27.88.16.57.33,1.13.52,1.69.06.23.13.45.2.68L121,617a1.06,1.06,0,0,0,.05.17l.26.83c.24.74.47,1.48.72,2.22.11.37.24.74.36,1.11s.23.7.34,1c.4,1.22.81,2.42,1.22,3.63.08.24.16.46.25.7.22.64.43,1.28.66,1.92,0,.1.06.19.11.3.13.38.27.75.41,1.13s.33,1,.52,1.45q.63,1.78,1.29,3.55c.26.72.53,1.44.8,2.16.11.29.22.58.33.87.24.64.47,1.27.72,1.9l.22.54c.57,1.5,1.15,3,1.76,4.45.28.71.57,1.42.86,2.13.23.55.45,1.11.69,1.66s.43,1.07.66,1.6c.32.78.65,1.55,1,2.33l.25.58.51,1.16q.36.86.74,1.71c.14.33.29.67.43,1,.47,1.09,1,2.18,1.45,3.25.36.79.71,1.57,1.08,2.36l.2.45.22.45c.23.52.46,1,.71,1.53.09.19.17.39.27.57l.52,1.11c.39.82.78,1.63,1.17,2.43a5.18,5.18,0,0,0,.24.5c.41.86.82,1.72,1.25,2.57.27.55.54,1.1.82,1.64s.51,1,.76,1.54l0,0,.39.78c.18.36.36.71.55,1.07,0,0,0,.05,0,.09a1.34,1.34,0,0,0,.11.22c.55,1.08,1.11,2.15,1.67,3.22l.06.12,1.07,2c.33.62.67,1.26,1,1.88s.6,1.13.92,1.7l.22.41.13.24c.42.75.84,1.52,1.27,2.27.26.48.53,1,.8,1.44l0,.05.3.55c.2.34.4.7.59,1,.06.11.12.22.18.31s.18.32.28.48c0,0,0,0,0,0l.39.69.45.76,1.37,2.37.42.7.06.11c.33.56.66,1.12,1,1.68.5.85,1,1.69,1.52,2.53l.24.39.29.47c.46.78.95,1.55,1.43,2.33l.65,1c.58.95,1.17,1.88,1.78,2.82.23.37.46.73.7,1.1.58.92,1.16,1.83,1.77,2.74a1,1,0,0,0,.12.17c.46.72.93,1.43,1.4,2.13.28.43.56.86.86,1.29.44.68.9,1.37,1.37,2l1.67,2.43c.17.26.34.52.53.78.94,1.35,1.86,2.68,2.81,4,.51.73,1,1.44,1.55,2.16l.54.74c.7,1,1.41,2,2.14,2.93l.52.7c.69.94,1.38,1.87,2.09,2.8l.4.52c.51.68,1,1.36,1.55,2s.93,1.22,1.4,1.82c.58.75,1.16,1.5,1.76,2.24l1,1.29.2.25c.39.5.78,1,1.17,1.46l1,1.28.42.51.82,1,1,1.23.65.78q2.91,3.49,5.89,6.91l.33.39c.87,1,1.77,2,2.66,3h0l.31.34c.9,1,1.81,2,2.74,3,.09.1.17.2.27.3.55.6,1.1,1.2,1.66,1.79s.93,1,1.39,1.51c.72.78,1.45,1.55,2.2,2.32.22.25.44.48.68.72l.15.16.06.06s0,0,0,0c.88.93,1.78,1.85,2.68,2.77l.4.42,1.06,1.07,1.73,1.74.37.38.09.08c.68.69,1.36,1.36,2,2a1.39,1.39,0,0,0,.23.22c1,1,2,2,3.07,3,.15.16.3.3.46.45l.2.19.27.26.06.06.75.71c.82.8,1.65,1.57,2.48,2.34l0,0q1.63,1.53,3.3,3c1.06,1,2.12,1.93,3.19,2.89l.17.15h0c.56.51,1.13,1,1.69,1.5s1.09,1,1.63,1.43q3.46,3,7,6l1.42,1.17c.32.28.66.55,1,.82l.76.62q2.83,2.29,5.69,4.53l1.07.84.39.29,0,0,.65.5c.94.73,1.87,1.44,2.82,2.15l.11.09q2,1.5,4,3c1.22.9,2.44,1.8,3.67,2.68l1,.73c.83.6,1.67,1.2,2.5,1.78,1.34.94,2.67,1.87,4,2.79l1.55,1.06.29.2,2.12,1.42c.93.62,1.86,1.24,2.8,1.85l1.55,1,.78.51.85.55.17.11c.4.26.8.52,1.21.76l.13.09c.68.44,1.38.87,2.07,1.31,1.51.94,3,1.87,4.53,2.79l.28.17c.61.38,1.23.75,1.85,1.11.83.51,1.67,1,2.51,1.5l.7.42,1.63.94,1.09.64c.56.32,1.13.66,1.7,1l1.27.73.33.18q.76.44,1.52.84c1.32.75,2.66,1.49,4,2.21.79.43,1.56.85,2.35,1.26l1.34.71,1,.54c1.06.56,2.12,1.11,3.19,1.66l.86.43c1,.53,2,1,3,1.52l2.06,1c.78.39,1.56.78,2.35,1.14l.7.33c1.16.57,2.34,1.12,3.51,1.67l2,.95,1.4.65.83.38c1.23.57,2.47,1.12,3.7,1.66l1.49.66,3.24,1.4.56.24c1.07.45,2.13.9,3.21,1.34.5.22,1,.43,1.51.62l1.63.67.13.05,1.5.59,2.23.88,1.95.76,1.35.51c1.2.46,2.39.9,3.59,1.35l.33.12c.94.36,1.88.7,2.83,1l1.46.53,3.44,1.21q1.05.37,2.1.71c.9.31,1.82.62,2.74.92l.83.28,3.33,1.08.15,0q2.49.81,5,1.55l.28.09,3.18.95c1.59.47,3.19.93,4.79,1.37l2.26.62,1.54.41.71.19c1.51.41,3,.8,4.52,1.18.83.2,1.65.42,2.48.61l.79.19q2.71.66,5.43,1.28l1.37.31c1,.24,2,.45,3,.67.74.17,1.48.32,2.21.47l1.7.36q1.76.37,3.52.71c1.4.28,2.8.55,4.21.81,1,.18,1.93.36,2.9.52a.61.61,0,0,0,.19,0c.66.13,1.32.25,2,.36l2.64.44c.95.16,1.91.32,2.88.46l1.77.28c1.53.24,3.06.45,4.6.67l2,.28c.9.13,1.81.25,2.72.36l.69.09,3.27.4,1.62.18c.85.11,1.7.2,2.56.29l2,.2,1.77.17c.67.08,1.34.14,2,.19a2.23,2.23,0,0,0,.38,0c.74.08,1.49.14,2.24.19s1.49.14,2.23.19c.16,0,.32,0,.48,0,.61.05,1.22.11,1.83.14.83.08,1.65.13,2.48.18l.82.05L471,891c.64.05,1.27.09,1.91.12l1.28.08h0l2.75.14,1.31.06a441.36,441.36,0,0,1-317.71-728C239.2,71.56,354.9,12.42,484.49,9.14c1.71,0,3.44-.08,5.15-.1,2.08,0,4.16,0,6.25,0s4.17,0,6.25,0c1.71,0,3.44.05,5.15.1C768.7,15.1,979.51,225.91,985.47,487.33Z" transform="translate(-6.3 -9)"/><path class="cls-2" d="M934.63,498.72A442,442,0,0,1,831.23,834.06C752.57,925.88,636.87,985,507.28,988.3c-1.71,0-3.44.08-5.15.1-2.08,0-4.16,0-6.25,0s-4.17,0-6.25,0c-1.71,0-3.44-.05-5.15-.1C223.07,982.35,12.26,771.53,6.3,510.12,9.59,639.71,68.72,755.4,160.54,834.06a441.34,441.34,0,0,0,728-317.88c0-.72.06-1.45.1-2.18,0-1.09.08-2.19.11-3.27,0-.31,0-.61,0-.93,0-.68,0-1.35.05-2,0-1.32.05-2.65.08-4,0-1.69,0-3.39,0-5.08s0-3.39,0-5.08c0-1.32,0-2.65-.08-4,0-.68,0-1.35-.05-2,0-.31,0-.61,0-.93,0-1.09-.06-2.19-.11-3.27a391.73,391.73,0,0,0-20.19-110.25q-2.2-6.54-4.62-13-5.64-15-12.46-29.39-3.88-8.22-8.14-16.22c-1.41-2.67-2.86-5.32-4.34-8q-4.43-7.88-9.21-15.55-3.57-5.75-7.36-11.36c-1.67-2.5-3.38-5-5.12-7.43s-3.49-4.88-5.28-7.29-3.6-4.8-5.44-7.17a395.1,395.1,0,0,0-69.74-69.74q-3.55-2.76-7.17-5.44t-7.29-5.28c-2.46-1.73-4.93-3.45-7.43-5.12q-5.61-3.78-11.36-7.36-7.66-4.78-15.55-9.21c-2.64-1.48-5.29-2.93-8-4.34q-8-4.26-16.22-8.14-14.38-6.82-29.39-12.46-6.41-2.42-13-4.62a391.27,391.27,0,0,0-108.26-20.11l3.73.15q17.11.81,33.88,2.89,11.18,1.39,22.17,3.32,5.49,1,10.94,2.07t10.81,2.33l.08,0q2.68.61,5.35,1.26c1.79.43,3.58.88,5.36,1.34s3.48.89,5.21,1.36h0l5.18,1.43a5.21,5.21,0,0,0,.55.15l4.92,1.43.11,0c1.73.52,3.47,1,5.19,1.57s3.49,1.1,5.23,1.66,3.47,1.13,5.19,1.71,3.46,1.17,5.17,1.79,3.44,1.22,5.15,1.84,3.4,1.25,5.1,1.9c2.08.8,4.15,1.59,6.2,2.42,1.28.5,2.56,1,3.84,1.54l.43.17c1.56.64,3.12,1.29,4.67,1.95s3.33,1.42,5,2.14q5,2.18,9.89,4.47c1.4.66,2.8,1.31,4.19,2q4.18,2,8.31,4.1c1.26.64,2.51,1.28,3.76,1.93l.74.38c2,1,4,2.09,5.93,3.16s3.93,2.15,5.89,3.24c1.35.75,2.68,1.52,4,2.28l3.69,2.14.61.37c1.22.71,2.43,1.44,3.65,2.18s2.49,1.51,3.73,2.26l.59.38q1.63,1,3.26,2,4.51,2.84,9,5.79l2.86,1.93c1.27.85,2.54,1.72,3.8,2.6,1,.7,2,1.4,3,2.11s2,1.43,3,2.16q15.67,11.23,30.29,23.76A440.42,440.42,0,0,1,934.63,498.72Z" transform="translate(-6.3 -9)"/></svg>